HIERARCHY
ROOT joint_Root
{
	OFFSET 0.0 0.0 0.0
	CHANNELS 6 Xposition Yposition Zposition Zrotation Xrotation Yrotation 
	JOINT Hips
	{
		OFFSET 4.5925 91.4895 -427.239
		CHANNELS 6 Xposition Yposition Zposition Zrotation Xrotation Yrotation 
		JOINT Spine
		{
			OFFSET 15.7357 0.0 0.0
			CHANNELS 6 Xposition Yposition Zposition Zrotation Xrotation Yrotation 
			JOINT Chest
			{
				OFFSET 8.98455 -0.406207 0.0
				CHANNELS 6 Xposition Yposition Zposition Zrotation Xrotation Yrotation 
				JOINT Neck
				{
					OFFSET 16.3773 0.0 0.0
					CHANNELS 6 Xposition Yposition Zposition Zrotation Xrotation Yrotation 
					JOINT Head
					{
						OFFSET 6.45672 0.0 0.0
						CHANNELS 6 Xposition Yposition Zposition Zrotation Xrotation Yrotation 
						End Site
						{
							OFFSET 0.0 0.0 0.0
						}
					}
				}
				JOINT Shoulder_L
				{
					OFFSET 12.9942 -0.242716 4.98039
					CHANNELS 6 Xposition Yposition Zposition Zrotation Xrotation Yrotation 
					JOINT UpperArm_L
					{
						OFFSET 5.34809 0.0 0.0
						CHANNELS 6 Xposition Yposition Zposition Zrotation Xrotation Yrotation 
						JOINT LowerArm_L
						{
							OFFSET 24.3286 1.87007e-05 0.0
							CHANNELS 6 Xposition Yposition Zposition Zrotation Xrotation Yrotation 
							JOINT Hand_L
							{
								OFFSET 22.2916 0.0 0.0
								CHANNELS 6 Xposition Yposition Zposition Zrotation Xrotation Yrotation 
								End Site
								{
									OFFSET 0.0 0.0 0.0
								}
							}
						}
					}
				}
				JOINT Shoulder_R
				{
					OFFSET 12.9945 -0.242716 -4.98039
					CHANNELS 6 Xposition Yposition Zposition Zrotation Xrotation Yrotation 
					JOINT UpperArm_R
					{
						OFFSET -5.34813 0.0 0.0
						CHANNELS 6 Xposition Yposition Zposition Zrotation Xrotation Yrotation 
						JOINT LowerArm_R
						{
							OFFSET -24.3289 0.000322201 0.0
							CHANNELS 6 Xposition Yposition Zposition Zrotation Xrotation Yrotation 
							JOINT Hand_R
							{
								OFFSET -22.2915 -0.000108084 0.0
								CHANNELS 6 Xposition Yposition Zposition Zrotation Xrotation Yrotation 
								End Site
								{
									OFFSET 0.0 0.0 0.0
								}
							}
						}
					}
				}
			}
		}
		JOINT UpperLeg_L
		{
			OFFSET -2.19248 -6.46944 0.0
			CHANNELS 6 Xposition Yposition Zposition Zrotation Xrotation Yrotation 
			JOINT LowerLeg_L
			{
				OFFSET 39.0811 0.0 -1.23785e-05
				CHANNELS 6 Xposition Yposition Zposition Zrotation Xrotation Yrotation 
				JOINT Foot_L
				{
					OFFSET 40.9854 0.0 -1.26872e-05
					CHANNELS 6 Xposition Yposition Zposition Zrotation Xrotation Yrotation 
					JOINT Toes_L
					{
						OFFSET 11.7543 0.0 0.0
						CHANNELS 6 Xposition Yposition Zposition Zrotation Xrotation Yrotation 
						End Site
						{
							OFFSET 0.0 0.0 0.0
						}
					}
				}
			}
		}
		JOINT UpperLeg_R
		{
			OFFSET -2.19251 6.46944 0.0
			CHANNELS 6 Xposition Yposition Zposition Zrotation Xrotation Yrotation 
			JOINT LowerLeg_R
			{
				OFFSET -39.0811 -0.00228153 -0.0401928
				CHANNELS 6 Xposition Yposition Zposition Zrotation Xrotation Yrotation 
				JOINT Foot_R
				{
					OFFSET -40.9854 0.0 0.0
					CHANNELS 6 Xposition Yposition Zposition Zrotation Xrotation Yrotation 
					JOINT Toes_R
					{
						OFFSET -11.7543 0.0 0.0
						CHANNELS 6 Xposition Yposition Zposition Zrotation Xrotation Yrotation 
						End Site
						{
							OFFSET 0.0 0.0 0.0
						}
					}
				}
			}
		}
	}
}
MOTION
Frames:	5
Frame Time:	0.0333333
0.000000 0.000000 0.000000 0.000000 0.000000 -0.000000 132.944000 90.037300 147.088000 90.136900 -58.703100 -0.288362 15.735700 0.000005 -0.000001 73.048100 82.188900 -74.411800 8.984550 -0.406207 -0.000000 7.141740 -4.531290 -2.442560 16.377300 -0.000001 -0.000001 0.850442 -12.590600 1.410540 6.456720 -0.000001 -0.000000 1.030540 -15.446300 8.669200 12.994200 -0.242716 4.980390 -90.728800 2.466250 -73.531400 5.348090 -0.000007 -0.000001 -55.098100 20.684400 -23.538300 24.328600 0.000019 0.000005 5.739250 11.945600 -25.899800 22.291600 -0.000001 0.000005 17.095000 5.166490 3.545840 12.994500 -0.242716 -4.980390 88.315100 9.524940 -79.920100 -5.348130 -0.000001 -0.000004 -65.911500 29.783000 -8.151860 -24.328900 0.000322 -0.000009 0.136635 0.336565 -22.251500 -22.291500 -0.000108 -0.000004 14.359000 5.359670 -1.669470 -2.192480 -6.469440 -0.000000 -177.770000 -25.728700 -5.744890 39.081100 -0.000007 -0.000012 -0.166976 0.280652 30.751000 40.985400 -0.000006 -0.000013 -1.589620 -0.407209 -74.767300 11.754300 -0.000000 0.000003 -0.000136 -0.001340 -16.628600 -2.192510 6.469440 -0.000001 -169.716000 18.305800 156.164000 -39.081100 -0.002282 -0.040193 -0.037101 0.072946 28.982400 -40.985400 0.000008 0.000006 11.568800 1.125950 -59.135600 -11.754300 -0.000006 -0.000006 -0.011902 -0.117337 -21.356300
0.000000 0.000000 0.000000 0.000000 0.000000 -0.000000 131.507000 89.843200 148.770000 89.882000 -59.387500 -0.562221 15.735700 0.000005 -0.000001 72.624700 82.319800 -73.389500 8.984550 -0.406207 -0.000000 6.880090 -4.565850 -1.254030 16.377300 -0.000001 -0.000001 0.681803 -12.625200 1.335550 6.456720 -0.000001 -0.000000 0.813273 -15.179700 7.209500 12.994200 -0.242716 4.980390 -90.842100 2.847530 -73.518000 5.348090 -0.000007 -0.000001 -56.820200 21.537700 -21.712600 24.328600 0.000019 0.000005 5.828550 12.158900 -25.857300 22.291600 -0.000001 0.000005 17.074800 5.170680 3.444030 12.994500 -0.242716 -4.980390 88.262200 9.606800 -79.696100 -5.348130 -0.000001 -0.000004 -64.835600 29.741300 -7.886270 -24.328900 0.000322 -0.000009 -0.062140 -0.143553 -23.038300 -22.291500 -0.000108 -0.000004 14.588900 5.360530 -1.695600 -2.192480 -6.469440 -0.000000 -177.761000 -26.011100 -4.566240 39.081100 -0.000007 -0.000012 0.008679 -0.014240 31.359600 40.985400 -0.000006 -0.000013 0.228124 -1.131450 -75.322400 11.754300 -0.000000 0.000003 -1.262320 -1.576630 -16.931200 -2.192510 6.469440 -0.000001 -170.748000 15.927100 156.312000 -39.081100 -0.002282 -0.040193 -0.075786 0.127064 31.898000 -40.985400 0.000008 0.000006 11.161900 -0.803345 -61.458500 -11.754300 -0.000006 -0.000006 -0.009401 -0.099109 -20.610400
0.000000 0.000000 0.000000 0.000000 0.000000 -0.000000 129.908000 89.778900 150.361000 90.299100 -60.401300 -0.024734 15.735700 0.000005 -0.000001 73.402000 82.482600 -73.744100 8.984550 -0.406207 -0.000000 6.643720 -4.277880 -0.435283 16.377300 -0.000001 -0.000001 0.814074 -12.551500 1.398540 6.456720 -0.000001 -0.000000 0.722639 -14.992200 6.105830 12.994200 -0.242716 4.980390 -90.802800 2.698160 -73.423000 5.348090 -0.000007 -0.000001 -59.519300 22.712700 -19.508900 24.328600 0.000019 0.000005 6.221020 12.998000 -25.857000 22.291600 -0.000001 0.000005 17.056200 5.171100 3.433810 12.994500 -0.242716 -4.980390 88.238700 9.590950 -79.543300 -5.348130 -0.000001 -0.000004 -64.001200 29.633900 -7.753340 -24.328900 0.000322 -0.000009 -0.291514 -0.673408 -23.331800 -22.291500 -0.000108 -0.000004 14.652800 5.364780 -1.825790 -2.192480 -6.469440 -0.000000 -177.420000 -26.466800 -5.084330 39.081100 -0.000007 -0.000012 0.006500 -0.009188 35.270300 40.985400 -0.000006 -0.000013 -0.878093 -0.801804 -72.609000 11.754300 -0.000000 0.000003 -0.839712 -0.999193 -20.079900 -2.192510 6.469440 -0.000001 -171.897000 13.934500 157.259000 -39.081100 -0.002282 -0.040193 -0.081376 0.126394 33.817600 -40.985400 0.000008 0.000006 11.239800 -1.979760 -63.569300 -11.754300 -0.000006 -0.000006 -0.007723 -0.085755 -20.064800
0.000000 0.000000 0.000000 0.000000 0.000000 -0.000000 128.143000 89.806100 151.814000 91.189200 -61.071400 1.257450 15.735700 0.000005 -0.000001 74.246200 82.554300 -74.369000 8.984550 -0.406207 -0.000000 6.574210 -4.029310 -0.013900 16.377300 -0.000001 -0.000001 1.067540 -12.584300 1.631190 6.456720 -0.000001 -0.000000 0.930621 -14.982200 5.450740 12.994200 -0.242716 4.980390 -90.721300 2.407490 -73.316700 5.348090 -0.000007 -0.000001 -61.833700 24.481400 -17.418000 24.328600 0.000019 0.000005 6.316120 13.176800 -25.899000 22.291600 -0.000001 0.000005 16.256000 5.180630 3.200150 12.994500 -0.242716 -4.980390 88.185500 9.618830 -79.264300 -5.348130 -0.000001 -0.000004 -63.613400 29.334000 -7.862140 -24.328900 0.000322 -0.000009 -0.123010 -0.285713 -23.113400 -22.291500 -0.000108 -0.000004 14.525600 5.358510 -1.634370 -2.192480 -6.469440 -0.000000 -176.953000 -26.198500 -6.653050 39.081100 -0.000007 -0.000012 0.044288 -0.050187 41.425500 40.985400 -0.000006 -0.000013 -2.542640 -0.123767 -68.739100 11.754300 -0.000000 0.000003 -0.030699 -0.220660 -25.618500 -2.192510 6.469440 -0.000001 -173.267000 13.572900 159.000000 -39.081100 -0.002282 -0.040193 -0.150605 0.220401 34.925100 -40.985400 0.000008 0.000006 9.968240 -1.710510 -65.659600 -11.754300 -0.000006 -0.000006 -0.007123 -0.080719 -19.859200
0.000000 0.000000 0.000000 0.000000 0.000000 -0.000000 126.327000 89.871600 153.128000 92.473800 -61.494600 3.540530 15.735700 0.000005 -0.000001 75.607500 82.375000 -75.670500 8.984550 -0.406207 -0.000000 7.014830 -3.777120 0.105866 16.377300 -0.000001 -0.000001 1.300350 -12.758700 2.001190 6.456720 -0.000001 -0.000000 1.028590 -15.096900 5.001450 12.994200 -0.242716 4.980390 -90.749200 2.483040 -73.204100 5.348090 -0.000007 -0.000001 -63.186900 26.709700 -15.755500 24.328600 0.000019 0.000005 6.533870 13.535000 -26.076000 22.291600 -0.000001 0.000005 14.953300 5.193150 2.890120 12.994500 -0.242716 -4.980390 88.145900 9.676780 -79.099300 -5.348130 -0.000001 -0.000004 -63.529000 28.662600 -8.041260 -24.328900 0.000322 -0.000009 -0.017834 -0.039566 -22.969200 -22.291500 -0.000108 -0.000004 14.568200 5.355350 -1.538480 -2.192480 -6.469440 -0.000000 -176.752000 -23.654900 -9.352860 39.081100 -0.000007 -0.000012 0.108206 -0.093174 49.268000 40.985400 -0.000006 -0.000013 -3.912590 -0.799116 -62.265200 11.754300 -0.000000 0.000003 -0.047173 -0.287545 -28.411400 -2.192510 6.469440 -0.000001 -174.868000 14.424900 161.648000 -39.081100 -0.002282 -0.040193 -0.213218 0.303413 35.511000 -40.985400 0.000008 0.000006 9.019250 -0.525671 -67.671800 -11.754300 -0.000006 -0.000006 -0.006337 -0.073864 -19.579500
